<?xml version="1.0" encoding="utf-8"?>
<!-- Generator: Adobe Illustrator 16.0.0, SVG Export Plug-In . SVG Version: 6.00 Build 0)  -->
<!DOCTYPE svg PUBLIC "-//W3C//DTD SVG 1.1//EN" "http://www.w3.org/Graphics/SVG/1.1/DTD/svg11.dtd">
<svg version="1.1" id="Layer_1" xmlns="http://www.w3.org/2000/svg" xmlns:xlink="http://www.w3.org/1999/xlink" x="0px" y="0px"
	 width="10px" height="10px" viewBox="0 0 10 10" enable-background="new 0 0 10 10" xml:space="preserve">
<path fill="#958C8A" d="M7.254,10c-0.719-0.033-1.42-0.235-2.047-0.591C3.221,8.423,1.603,6.818,0.595,4.834
	C0.223,4.195,0.018,3.471,0,2.73c0.052-0.57,0.249-1.118,0.571-1.59s0.76-0.854,1.271-1.108C1.893,0.009,1.95-0.001,2.006,0.004
	c0.159-0.005,0.317,0.025,0.462,0.09s0.275,0.161,0.378,0.282l0.455,0.458c0.326,0.328,0.651,0.651,0.973,0.983
	c0.107,0.095,0.194,0.212,0.253,0.343c0.059,0.131,0.089,0.274,0.089,0.418c0,0.144-0.03,0.286-0.089,0.417
	C4.468,3.125,4.382,3.242,4.274,3.337c-0.125,0.125-0.246,0.251-0.37,0.372C3.78,3.831,3.603,4.009,3.454,4.167
	C3.377,4.248,3.39,4.268,3.426,4.316c0.637,0.875,1.41,1.641,2.288,2.27c0.04,0.032,0.097,0.061,0.181-0.024s0.237-0.239,0.357-0.36
	c0.121-0.121,0.334-0.34,0.504-0.502c0.184-0.182,0.432-0.283,0.689-0.283S7.95,5.518,8.135,5.699
	c0.289,0.283,0.57,0.57,0.855,0.854l0.721,0.749c0.178,0.192,0.275,0.444,0.275,0.706S9.889,8.521,9.711,8.713
	c-0.076,0.074-0.149,0.15-0.222,0.227C9.363,9.083,9.229,9.219,9.088,9.345c-0.494,0.421-1.118,0.659-1.766,0.671L7.254,10z
	 M2.071,0.829C1.722,1.028,1.424,1.307,1.202,1.643s-0.362,0.72-0.41,1.12c0.022,0.606,0.195,1.197,0.503,1.72
	c0.932,1.832,2.426,3.313,4.262,4.223c0.531,0.309,1.129,0.482,1.741,0.506c0.468-0.008,0.919-0.18,1.274-0.485
	C8.691,8.621,8.804,8.511,8.91,8.395c0.08-0.086,0.161-0.17,0.246-0.252c0.02-0.038,0.029-0.081,0.029-0.125
	c0-0.043-0.01-0.086-0.029-0.125l-0.74-0.74c-0.281-0.287-0.563-0.57-0.849-0.85C7.551,6.285,7.53,6.271,7.508,6.262
	c-0.022-0.01-0.047-0.016-0.071-0.016S7.389,6.252,7.365,6.262C7.344,6.271,7.322,6.285,7.307,6.303L6.819,6.788
	c-0.12,0.126-0.245,0.251-0.37,0.372C6.295,7.32,6.087,7.42,5.865,7.438c-0.222,0.02-0.443-0.043-0.622-0.176
	C4.294,6.584,3.46,5.756,2.774,4.81C2.642,4.636,2.578,4.419,2.596,4.201c0.018-0.218,0.116-0.422,0.275-0.572
	c0.153-0.162,0.31-0.319,0.466-0.473s0.241-0.239,0.358-0.364c0.117-0.125,0.157-0.235,0-0.405C3.374,2.059,3.052,1.735,2.726,1.412
	L2.272,0.951C2.171,0.829,2.119,0.829,2.071,0.829z"/>
</svg>
