<?xml version="1.0" encoding="utf-8"?>
<!-- Generator: Adobe Illustrator 16.0.0, SVG Export Plug-In . SVG Version: 6.00 Build 0)  -->
<!DOCTYPE svg PUBLIC "-//W3C//DTD SVG 1.1//EN" "http://www.w3.org/Graphics/SVG/1.1/DTD/svg11.dtd">
<svg version="1.1" id="Layer_1" xmlns="http://www.w3.org/2000/svg" xmlns:xlink="http://www.w3.org/1999/xlink" x="0px" y="0px"
	 width="14px" height="21px" viewBox="0 0 14 21" enable-background="new 0 0 14 21" xml:space="preserve">
<g>
	<defs>
		<rect id="SVGID_1_" width="14" height="21"/>
	</defs>
	<clipPath id="SVGID_2_">
		<use xlink:href="#SVGID_1_"  overflow="visible"/>
	</clipPath>
	<g clip-path="url(#SVGID_2_)">
		<path fill="#8EC31F" d="M12.592,7.337c0,1.049,0,1.908,0,2.767c-0.004,0.244,0.076,0.482,0.228,0.68
			c2.846,3.97,0.294,9.424-4.741,10.139c-0.938,0.14-1.898,0.099-2.82-0.123s-1.785-0.618-2.538-1.165
			c-0.752-0.546-1.379-1.231-1.84-2.014c-0.461-0.783-0.747-1.646-0.841-2.536c-0.172-1.52,0.237-3.048,1.154-4.309
			c0.148-0.199,0.226-0.438,0.22-0.682c0-1.637,0-3.272,0-4.904c0-2.65,2.263-4.964,5.029-5.173
			c2.964-0.224,5.575,1.619,6.065,4.291C12.7,5.377,12.525,6.456,12.592,7.337z M6.999,19.623c3.082-0.072,5.498-2.257,5.503-5.184
			c-0.012-1.376-0.599-2.692-1.635-3.664s-2.438-1.52-3.9-1.525C6.242,9.242,5.523,9.372,4.853,9.63
			c-0.671,0.258-1.28,0.641-1.791,1.124c-0.511,0.484-0.914,1.059-1.185,1.691c-0.271,0.633-0.404,1.311-0.392,1.992
			C1.503,17.369,3.92,19.551,6.999,19.623z M11.139,7.028c0-0.545,0-1.088,0-1.634c-0.043-2.74-2.445-4.279-4.783-3.953
			c-1.654,0.229-3.2,1.611-3.407,3.175c-0.185,1.397-0.05,2.802-0.087,4.204c0,0.249,0.106,0.222,0.289,0.12
			c0.304-0.186,0.62-0.352,0.948-0.498c2.305-0.941,4.534-0.782,6.682,0.441c0.092,0.055,0.177,0.182,0.299,0.12
			c0.121-0.063,0.061-0.199,0.061-0.302C11.141,8.146,11.139,7.586,11.139,7.028z"/>
		<path fill="#8EC31F" d="M7.725,15.117c0,0.408,0,0.817,0,1.226c0.009,0.095-0.004,0.191-0.037,0.282
			c-0.033,0.09-0.086,0.172-0.156,0.241c-0.071,0.069-0.156,0.123-0.251,0.158s-0.196,0.051-0.297,0.046
			c-0.098,0.001-0.195-0.018-0.286-0.054c-0.09-0.036-0.171-0.091-0.237-0.159c-0.066-0.067-0.117-0.147-0.148-0.235
			c-0.031-0.087-0.042-0.18-0.033-0.271c0-0.842,0-1.687,0-2.528c-0.011-0.096,0.001-0.191,0.034-0.281
			c0.033-0.092,0.086-0.174,0.157-0.244c0.07-0.068,0.155-0.123,0.25-0.158s0.196-0.051,0.298-0.046
			c0.098-0.001,0.195,0.019,0.285,0.055s0.171,0.091,0.237,0.158c0.066,0.067,0.117,0.147,0.149,0.235
			c0.032,0.087,0.044,0.18,0.036,0.271C7.732,14.248,7.725,14.684,7.725,15.117z"/>
	</g>
</g>
</svg>
