<?xml version="1.0" encoding="utf-8"?>
<!-- Generator: Adobe Illustrator 16.0.0, SVG Export Plug-In . SVG Version: 6.00 Build 0)  -->
<!DOCTYPE svg PUBLIC "-//W3C//DTD SVG 1.1//EN" "http://www.w3.org/Graphics/SVG/1.1/DTD/svg11.dtd">
<svg version="1.1" id="Layer_1" xmlns="http://www.w3.org/2000/svg" xmlns:xlink="http://www.w3.org/1999/xlink" x="0px" y="0px"
	 width="29px" height="42px" viewBox="0 0 29 42" enable-background="new 0 0 29 42" xml:space="preserve">
<g>
	<defs>
		<rect id="SVGID_1_" width="29" height="42"/>
	</defs>
	<clipPath id="SVGID_2_">
		<use xlink:href="#SVGID_1_"  overflow="visible"/>
	</clipPath>
	<g clip-path="url(#SVGID_2_)">
		
			<linearGradient id="SVGID_3_" gradientUnits="userSpaceOnUse" x1="241.8428" y1="-319.4868" x2="242.3439" y2="-349.9901" gradientTransform="matrix(1 0 0 -1 -227.5996 -307.9902)">
			<stop  offset="0" style="stop-color:#1E7BA9"/>
			<stop  offset="1" style="stop-color:#1E2CA9;stop-opacity:0.73"/>
		</linearGradient>
		<path fill="url(#SVGID_3_)" d="M28.996,26.643c-0.008-0.396-0.045-0.791-0.109-1.182c-0.121-0.836-0.312-1.66-0.571-2.463
			c-0.446-1.393-1.099-2.709-1.938-3.906c-0.751-1.076-1.647-2.043-2.663-2.875c-0.063-0.047-0.113-0.11-0.146-0.182
			s-0.047-0.151-0.043-0.23c0-2.242,0-4.482,0-6.723c0.002-0.876-0.127-1.748-0.381-2.586c-0.528-1.869-1.657-3.511-3.211-4.672
			c-2.195-1.626-4.658-2.154-7.328-1.613c-1.353,0.272-2.62,0.872-3.689,1.746c-2.209,1.79-3.381,4.113-3.442,6.958
			c-0.049,2.301-0.012,4.603-0.012,6.906c0,0.067,0.01,0.136,0.016,0.204c-0.065,0.065-0.125,0.133-0.19,0.19
			c-0.61,0.502-1.178,1.055-1.698,1.651c-1.941,2.205-3.158,4.956-3.485,7.878c-0.143,1.233-0.135,2.481,0.024,3.713
			c0.189,1.434,0.598,2.829,1.211,4.138c0.884,1.904,2.167,3.596,3.763,4.957c0.973,0.835,2.054,1.535,3.214,2.081
			c0.828,0.395,1.692,0.705,2.581,0.929c0.478,0.147,0.972,0.236,1.472,0.265c0.023,0.03,0.056,0.052,0.093,0.063
			c0.037,0.011,0.077,0.009,0.112-0.005c0.06,0.027,0.126,0.034,0.19,0.021c0.019,0.015,0.043,0.022,0.067,0.022
			s0.048-0.008,0.067-0.022l0.238,0.021c0.064,0.072,0.141,0.054,0.219,0.031c0.298,0.047,0.601,0.059,0.901,0.033
			c0.46,0.023,0.921,0.013,1.38-0.029c0.037,0.008,0.074,0.014,0.111,0.015c1.215-0.113,2.412-0.374,3.564-0.777
			c1.992-0.696,3.807-1.823,5.316-3.302c1.393-1.354,2.5-2.975,3.257-4.766c0.499-1.191,0.841-2.443,1.02-3.725
			C29.033,28.488,28.99,27.558,28.996,26.643z M6.909,15.032c-0.127,0.071-0.251,0.147-0.38,0.225
			C6.65,15.179,6.774,15.103,6.909,15.032c0.099-0.053,0.19-0.11,0.293-0.167C7.104,14.922,7.008,14.977,6.909,15.032z
			 M8.101,14.409c0.029-0.01,0.055-0.026,0.076-0.048c-0.021,0.021-0.048,0.035-0.076,0.044V14.409z M14.013,24.792
			c0,0.89,0.004,1.774,0.014,2.657C14.024,26.563,14.02,25.678,14.013,24.792z M14.964,24.706c0.036,0.009,0.067,0.022,0.057,0.054
			c0.014-0.031-0.018-0.045-0.054-0.062L14.964,24.706z M14.629,24.365c0.026-0.012,0.056-0.014,0.083-0.006
			c0.027,0.009,0.05,0.027,0.065,0.051c-0.015-0.023-0.038-0.041-0.064-0.049s-0.055-0.008-0.081,0.004H14.629z M14.209,24.453
			c0.016-0.037,0.027-0.082,0.055-0.096c-0.024,0.014-0.036,0.059-0.051,0.096H14.209z M13.57,27.884
			c0.008-0.038,0.027-0.073,0.056-0.099c0.028-0.027,0.064-0.045,0.102-0.051c-0.039,0.008-0.074,0.026-0.102,0.055
			c-0.028,0.027-0.046,0.063-0.052,0.102L13.57,27.884z M13,28.852c0,0.158,0,0.316,0,0.475V28.852
			c-0.018-0.032-0.025-0.069-0.022-0.105c0.003-0.037,0.017-0.072,0.04-0.102c-0.023,0.03-0.037,0.066-0.039,0.105
			c-0.002,0.039,0.007,0.076,0.027,0.109L13,28.852z M13.019,29.548c0.021,0.074,0.064,0.142,0.124,0.19
			c-0.056-0.049-0.097-0.111-0.118-0.184L13.019,29.548z M13.275,30.043c0.214,0.227,0.482,0.394,0.78,0.484
			c-0.294-0.09-0.561-0.254-0.774-0.477L13.275,30.043z M15.981,30.043c0.024-0.12,0.052-0.256-0.11-0.33
			c0.168,0.09,0.141,0.226,0.116,0.346L15.981,30.043z M20.785,14.032c0,0.263,0,0.271-0.251,0.16
			c-0.359-0.162-0.721-0.316-1.094-0.446c-0.907-0.332-1.846-0.571-2.801-0.713c-0.409-0.085-0.828-0.119-1.245-0.099h-0.636
			c-0.166-0.047-0.342-0.047-0.508,0c-1.1-0.027-2.199,0.102-3.263,0.381c-0.911,0.224-1.798,0.538-2.647,0.938
			c-0.036,0.012-0.074,0.019-0.112,0.021c0-1.396-0.011-2.791,0-4.184C8.208,9.488,8.223,8.886,8.274,8.287
			C8.407,7.17,8.84,6.111,9.529,5.223c0.858-1.144,2.086-1.952,3.474-2.287c1.183-0.291,2.424-0.229,3.573,0.177
			s2.154,1.14,2.893,2.11c0.873,1.129,1.338,2.521,1.316,3.95V14.032z"/>
		<path fill="#F1F3F9" d="M14.509,31.203c1.035,0,1.874-0.84,1.874-1.877s-0.839-1.878-1.874-1.878
			c-1.034,0-1.873,0.841-1.873,1.878S13.475,31.203,14.509,31.203z"/>
		<path fill="#F1F3F9" d="M14.506,24.496h-0.027c-0.386,0-0.7,0.314-0.7,0.701v2.906c0,0.389,0.313,0.702,0.7,0.702h0.027
			c0.386,0,0.699-0.313,0.699-0.702v-2.906C15.205,24.811,14.892,24.496,14.506,24.496z"/>
	</g>
</g>
</svg>
