<?xml version="1.0" encoding="utf-8"?>
<!-- Generator: Adobe Illustrator 16.0.0, SVG Export Plug-In . SVG Version: 6.00 Build 0)  -->
<!DOCTYPE svg PUBLIC "-//W3C//DTD SVG 1.1//EN" "http://www.w3.org/Graphics/SVG/1.1/DTD/svg11.dtd">
<svg version="1.1" id="Layer_1" xmlns="http://www.w3.org/2000/svg" xmlns:xlink="http://www.w3.org/1999/xlink" x="0px" y="0px"
	 width="45px" height="37.105px" viewBox="0 0 45 37.105" enable-background="new 0 0 45 37.105" xml:space="preserve">
<g>
	<path fill="#004181 " d="M3.534,0C1.582,0,0,1.582,0,3.534v12.932C0,18.418,1.582,20,3.534,20H10v16.211
		c0,0.415,0.285,0.775,0.688,0.871c0.404,0.095,0.82-0.099,1.006-0.47l6.722-13.443C19.458,21.085,20,18.787,20,16.458V3.534
		C20,1.582,18.418,0,16.466,0H3.534z"/>
	<path fill="#004181 " d="M28.534,0C26.582,0,25,1.582,25,3.534v12.932C25,18.418,26.582,20,28.534,20H35v16.211
		c0,0.415,0.285,0.775,0.688,0.871c0.404,0.095,0.82-0.099,1.006-0.47l6.722-13.443C44.458,21.085,45,18.787,45,16.458V3.534
		C45,1.582,43.418,0,41.466,0H28.534z"/>
</g>
</svg>
