<?xml version="1.0" encoding="utf-8"?>
<!-- Generator: Adobe Illustrator 16.0.0, SVG Export Plug-In . SVG Version: 6.00 Build 0)  -->
<!DOCTYPE svg PUBLIC "-//W3C//DTD SVG 1.1//EN" "http://www.w3.org/Graphics/SVG/1.1/DTD/svg11.dtd">
<svg version="1.1" id="Layer_1" xmlns="http://www.w3.org/2000/svg" xmlns:xlink="http://www.w3.org/1999/xlink" x="0px" y="0px"
	 width="39px" height="39px" viewBox="0 0 39 39" enable-background="new 0 0 39 39" xml:space="preserve">
<path fill="#9ACDF5" d="M19.514,39C8.735,39.008-0.001,30.275,0,19.495C0.001,8.71,8.738-0.012,19.523,0
	c10.749,0.012,19.459,8.72,19.475,19.467C39.017,30.253,30.299,38.994,19.514,39z M18.359,22.096
	c-0.218,0.044-0.434,0.096-0.654,0.131c-5.06,0.781-8.634,3.522-10.792,8.148c-0.173,0.371-0.21,0.637,0.128,0.996
	c6.654,7.074,18.131,7.106,24.855,0.07c0.369-0.386,0.381-0.67,0.17-1.119c-1.99-4.26-5.252-6.932-9.855-7.94
	c-0.52-0.114-1.045-0.192-1.768-0.324c3.924-0.921,6.266-3.994,5.885-7.489c-0.391-3.542-3.33-6.196-6.855-6.186
	c-3.48,0.011-6.396,2.656-6.797,6.166C12.278,18.034,14.632,21.141,18.359,22.096z"/>
<path fill="#FFFFFF" d="M18.359,22.096c-3.727-0.957-6.082-4.062-5.683-7.547c0.402-3.51,3.317-6.153,6.797-6.164
	c3.524-0.011,6.465,2.644,6.852,6.184c0.383,3.493-1.959,6.568-5.885,7.489c0.723,0.131,1.25,0.21,1.768,0.324
	c4.604,1.009,7.864,3.681,9.856,7.939c0.21,0.449,0.198,0.734-0.171,1.12c-6.725,7.037-18.2,7.004-24.855-0.07
	c-0.336-0.359-0.3-0.625-0.128-0.996c2.157-4.627,5.733-7.369,10.793-8.148C17.925,22.193,18.142,22.14,18.359,22.096z"/>
</svg>
